<?xml version="1.0" encoding="iso-8859-1"?>
<!-- Generator: Adobe Illustrator 19.0.0, SVG Export Plug-In . SVG Version: 6.00 Build 0)  -->
<svg version="1.1" id="Capa_1" xmlns="http://www.w3.org/2000/svg" xmlns:xlink="http://www.w3.org/1999/xlink" x="0px" y="0px"
	 viewBox="0 0 512 512" style="enable-background:new 0 0 512 512;" xml:space="preserve">
<g>
	<path style="fill:#EAB883;" d="M132.055,196.257c0,13.614,14.209,24.648,30.465,24.648V171.61
		C146.265,171.611,132.055,182.645,132.055,196.257z"/>
	<path style="fill:#EAB883;" d="M380.07,196.257c0,13.614-14.209,24.648-30.466,24.648V171.61
		C365.861,171.611,380.07,182.645,380.07,196.257z"/>
</g>
<g>
	<path style="fill:#DDA36F;" d="M134.938,185.953c-9.729,16.615,6.339,34.953,27.583,34.953v-20.609
		C150.659,200.297,139.895,194.419,134.938,185.953z"/>
	<path style="fill:#DDA36F;" d="M349.604,200.297v20.609c21.36,0,37.267-18.416,27.584-34.953
		C372.231,194.419,361.467,200.297,349.604,200.297z"/>
</g>
<path style="fill:#F2F1F0;" d="M386.532,79.156c-0.779-27.374-23.103-49.732-50.475-50.564c-8.07-0.245-15.734,1.36-22.623,4.4
	C301.923,13.265,280.548,0,256.063,0c-24.486,0-45.861,13.265-57.37,32.992c-6.891-3.041-14.559-4.646-22.631-4.4
	c-27.373,0.836-49.693,23.198-50.467,50.573c-0.504,17.822,7.947,33.693,21.179,43.459v39.1c0,5.443,4.413,9.856,9.856,9.856
	h196.839c6.564,0,11.885-5.321,11.885-11.885v-37.071C378.587,112.856,387.039,96.981,386.532,79.156z"/>
<path style="fill:#DADADA;" d="M172.236,161.723v-34.236c0-6.929-2.653-13.576-7.358-18.663
	c-8.907-9.631-14.224-22.628-13.821-36.872c0.52-18.388,10.769-34.501,25.732-43.361c-0.005-0.017,0,0.001-0.005-0.016
	c-27.703,0.46-50.411,22.974-51.193,50.59c-0.504,17.822,7.947,33.693,21.18,43.458v39.1c0,5.444,4.413,9.857,9.857,9.857h25.464
	C176.65,171.58,172.236,167.166,172.236,161.723z"/>
<path style="fill:#EAEAEA;" d="M411.53,512c12.711,0,22.249-11.624,19.766-24.09l-16.257-81.65
	c-4.248-21.279-19.882-29.931-28.495-33.144l-90.884-36.215l-39.752,30.569l-39.784-30.384l-91.129,36.03
	c-8.614,3.213-24.247,11.865-28.495,33.144l-15.754,79.121C78.004,499.156,88.542,512,102.588,512H411.53z"/>
<path style="fill:#DADADA;" d="M106.508,485.381l15.755-92.517c2.199-11.015,7.451-18.64,13.199-23.885l-10.465,4.138
	c-8.614,3.213-24.247,11.865-28.495,33.144l-15.755,79.122C78.004,499.156,88.542,512,102.588,512h25.761
	C114.304,512,103.766,499.156,106.508,485.381z"/>
<path style="fill:#F2F1F0;" d="M431.296,487.91l-16.257-81.65c-4.248-21.279-19.882-29.931-28.495-33.144l-90.884-36.215
	l-39.675,30.51l0.077,0.059c-0.185,1.018,1.27,9.421-5.95,16.361v0.727l-28.564,22.367c-4.774,3.738-7.564,9.465-7.564,15.529V512
	h197.545C424.241,512,433.779,500.376,431.296,487.91z"/>
<path style="fill:#FF6536;" d="M255.909,367.47v2.198c0,16.936,19.926,26.009,32.701,14.891l39.775-34.618l-32.724-13.04
	L255.909,367.47z"/>
<g>
	<path style="fill:#ED4A24;" d="M278.415,351.52v-1.357l-22.506,17.307v2.198c0,16.936,19.926,26.009,32.701,14.89l8.336-7.255
		C286.627,373.793,278.415,364.283,278.415,351.52z"/>
	<path style="fill:#ED4A24;" d="M256.063,367.47v2.198c0,16.936-19.926,26.009-32.701,14.891l-39.776-34.618l32.539-12.855
		L256.063,367.47z"/>
</g>
<g>
	<circle style="fill:#FF6536;" cx="246.851" cy="436" r="8.917"/>
	<circle style="fill:#FF6536;" cx="246.851" cy="474" r="8.917"/>
</g>
<path style="fill:#EAB883;" d="M295.661,312.07c-0.093,0.043-0.185,0.082-0.277,0.125l0,0v-0.01
	c-0.006,0.003-0.014,0.007-0.022,0.01l0,0v-0.125c-12.041,5.583-25.44,8.728-39.579,8.749h-0.012h-0.007
	c-14.143-0.021-27.543-3.166-39.583-8.749v0.125h-0.001c-0.008-0.003-0.015-0.007-0.022-0.01v0.01l0,0
	c-0.091-0.042-0.184-0.081-0.276-0.125l0.245,25.016l0,0l39.783,30.385l39.752-30.57L295.661,312.07L295.661,312.07z"/>
<path style="fill:#DDA36F;" d="M241.642,319.736c-8.961-1.363-17.51-3.978-25.463-7.666v0.125h-0.001
	c-0.008-0.003-0.015-0.007-0.022-0.01v0.01l0,0c-0.091-0.042-0.184-0.082-0.276-0.125l0.245,25.016l25.517,19.488L241.642,319.736
	L241.642,319.736z"/>
<path style="fill:#F7CF9C;" d="M161.49,171.579v56.417c0,54.195,44.919,98.339,99.055,95.813
	c50.148-2.34,90.089-43.733,90.089-94.468v-57.763L161.49,171.579L161.49,171.579z"/>
<path style="fill:#EAB883;" d="M186.954,227.997V171.58H161.49v56.417c0,54.195,44.919,98.339,99.055,95.813
	c2.816-0.131,5.597-0.392,8.343-0.765C222.721,316.71,186.954,276.356,186.954,227.997z"/>
<g>
	<path style="fill:#DADADA;" d="M321.636,155.301c-4.268,0-7.728-3.46-7.728-7.728v-24.948c0-4.269,3.46-7.728,7.728-7.728
		s7.728,3.46,7.728,7.728v24.948C329.365,151.841,325.905,155.301,321.636,155.301z"/>
	<path style="fill:#DADADA;" d="M277.92,155.301c-4.268,0-7.728-3.46-7.728-7.728v-24.948c0-4.269,3.46-7.728,7.728-7.728
		s7.728,3.46,7.728,7.728v24.948C285.649,151.841,282.189,155.301,277.92,155.301z"/>
	<path style="fill:#DADADA;" d="M234.204,155.301c-4.268,0-7.728-3.46-7.728-7.728v-24.948c0-4.269,3.46-7.728,7.728-7.728
		c4.268,0,7.728,3.46,7.728,7.728v24.948C241.933,151.841,238.473,155.301,234.204,155.301z"/>
	<path style="fill:#DADADA;" d="M190.489,155.301c-4.268,0-7.728-3.46-7.728-7.728v-24.948c0-4.269,3.46-7.728,7.728-7.728
		s7.728,3.46,7.728,7.728v24.948C198.217,151.841,194.757,155.301,190.489,155.301z"/>
	<path style="fill:#DADADA;" d="M152.079,512v-46.053c0-4.269-3.46-7.728-7.728-7.728c-4.268,0-7.728,3.46-7.728,7.728V512H152.079z
		"/>
	<path style="fill:#DADADA;" d="M374.918,512v-46.053c0-4.269-3.46-7.728-7.728-7.728s-7.728,3.46-7.728,7.728V512H374.918z"/>
</g>
<g>
</g>
<g>
</g>
<g>
</g>
<g>
</g>
<g>
</g>
<g>
</g>
<g>
</g>
<g>
</g>
<g>
</g>
<g>
</g>
<g>
</g>
<g>
</g>
<g>
</g>
<g>
</g>
<g>
</g>
</svg>
